<?xml version="1.0" encoding="utf-8"?>
<!-- Generator: Adobe Illustrator 20.1.0, SVG Export Plug-In . SVG Version: 6.00 Build 0)  -->
<svg version="1.1" id="Layer_1" xmlns="http://www.w3.org/2000/svg" xmlns:xlink="http://www.w3.org/1999/xlink" x="0px" y="0px"
	 viewBox="0 0 336.8 167.7" style="enable-background:new 0 0 336.8 167.7;" xml:space="preserve">
<style type="text/css">
	.st0{font-family:'Baskerville';}
	.st1{font-size:36.8851px;}
</style>
<g id="Layer_1_1_">
</g>
<g id="Layer_2">
</g>
<g id="Layer_4">
	<path d="M0,52.2c0,0,14.3,4.5,26,11.7s18,13.5,18,13.5s-12.2-6.9-19.4-8.8S16.1,67,16.1,67s8.2,5.8,10.4,10.4s3.7,8,3.7,15.4
		S30,114.6,30,114.6s-0.5,7.2,2.4,14.3c2.9,7.2,4.8,11.4,5.8,12.7c1.1,1.3,1.1,1.3,1.1,1.3l-14.6-13.5l-14.3-13.8c0,0-3.7-1.9-4-9.6
		s0-38,0-38s0.3-5.8-1.9-9.6C2.4,54.9,0,52.2,0,52.2z"/>
	<path d="M87.8,77.4c0,0,11.7-11.4,26.8-18s17.5-7.2,17.5-7.2s-4.5,4.2-5.8,10.9s-0.5,44.1-0.5,44.1s1.1,3.5-3.5,8
		c-4.5,4.5-21.5,20.7-21.5,20.7l-7.7,7.2c0,0,6.4-9,8.2-20.2s-0.8-30,1.1-35.6s2.4-9.6,6.4-14.1s7.2-5.8,7.2-5.8s-6.6,0.8-11.7,2.7
		s-11.1,4.8-11.1,4.8L87.8,77.4z"/>
	<path d="M53.9,102.4v53.1c0,0,1.3,2.4,5,5.6c3.7,3.2,7.2,6.6,7.2,6.6l10.6-10.4c0,0,1.1-1.3,1.6-2.7c0.5-1.3,0-52.3,0-52.3
		s-5.6,3.5-8.2,7.7c-2.7,4.2-4,5.6-4,5.6s-2.7-5.8-7.4-9.6S53.9,102.4,53.9,102.4z"/>
	<text transform="matrix(1 0 0 1 135.2648 150.0406)" class="st0 st1">Ma Run min</text>
</g>
<g id="Layer_5">
</g>
<g id="Layer_3">
</g>
</svg>
